<svg xmlns="http://www.w3.org/2000/svg" viewBox="0 0 841.9 595.3">
  <g fill="#61DAFB">
    <path d="M666.3 296.5c0-32.5-40.7-63.3-103.1-82.4 14.4-63.6 8-114.2-20.2-130.4-6.5-3.8-14.1-5.6-22.4-5.6v22.3c4.6 0 8.3.9 11.4 2.6 13.6 7.8 19.5 37.5 14.9 75.7-1.1 9.4-2.9 19.3-5.1 29.4-19.6-4.8-41-8.5-63.5-10.9-13.5-18.5-27.5-35.3-41.6-50 32.6-30.3 63.5-46.9 84-46.9V78c-27.5 0-63.5 19.6-99.9 53.6-36.4-34-72.4-53.6-99.9-53.6v22.3c20.5 0 51.4 16.5 84 46.9-14.1 14.7-28.1 31.5-41.6 50-22.6 2.4-43.9 6.1-63.5 10.9-2.3-10.1-4-20-5.1-29.4-4.7-38.2 1.2-67.9 14.9-75.7 3.1-1.8 6.8-2.6 11.4-2.6V78c-8.3 0-15.9 1.8-22.4 5.6-28.1 16.2-34.6 66.8-20.2 130.4-62.3 19.2-103.1 49.9-103.1 82.4 0 32.5 40.7 63.3 103.1 82.4-14.4 63.6-8 114.2 20.2 130.4 6.5 3.8 14.1 5.6 22.4 5.6v-22.3c-4.6 0-8.3-.9-11.4-2.6-13.6-7.8-19.5-37.5-14.9-75.7 1.1-9.4 2.9-19.3 5.1-29.4 19.6 4.8 41 8.5 63.5 10.9 13.5 18.5 27.5 35.3 41.6 50-32.6 30.3-63.5 46.9-84 46.9v22.3c27.5 0 63.5-19.6 99.9-53.6 36.4 34 72.4 53.6 99.9 53.6v-22.3c-20.5 0-51.4-16.5-84-46.9 14.1-14.7 28.1-31.5 41.6-50 22.6-2.4 43.9-6.1 63.5-10.9 2.3 10.1 4-20 5.1-29.4 4.7-38.2-1.2-67.9-14.9-75.7-3.1-1.8-6.8-2.6-11.4-2.6v22.3c8.3 0 15.9-1.8 22.4-5.6 28.1-16.2 34.6-66.8 20.2-130.4 62.4-19.1 103.1-49.9 103.1-82.4z"/>
  </g>
</svg>
